<svg xmlns="http://www.w3.org/2000/svg" width="266.667" height="266.667" preserveAspectRatio="xMidYMid meet" version="1.0" viewBox="0 0 200 200"><g fill="#000" stroke="none"><path d="M666 1495 c-27 -8 -52 -17 -56 -22 -9 -11 -90 -225 -90 -239 0 -7 13 -17 30 -24 16 -7 38 -27 48 -44 11 -18 28 -46 37 -62 15 -23 8 -19 -31 17 -27 26 -84 65 -126 88 l-76 42 -8 -23 c-4 -13 -48 -184 -99 -380 l-91 -358 847 0 847 0 -19 88 c-55 255 -45 229 -102 267 -28 19 -55 35 -59 35 -4 0 -8 -17 -10 -37 -2 -31 -10 -11 -38 99 l-34 137 -59 26 c-51 22 -63 24 -101 14 -41 -10 -43 -13 -71 -86 l-29 -76 26 -21 c14 -12 31 -32 38 -46 l13 -25 -29 26 c-32 29 -113 73 -121 66 -2 -3 -10 -27 -17 -54 l-13 -48 -17 77 -18 76 -80 52 c-45 28 -88 50 -97 48 -11 -2 -17 -18 -21 -53 -5 -47 -8 -39 -49 135 -24 102 -48 199 -53 216 -7 27 -18 35 -101 67 -102 41 -102 41 -171 22z" transform="translate(0.000000,200.000000) scale(0.100000,-0.100000)"/><path d="M188 705 l-86 -215 34 0 c28 0 35 4 40 28 4 15 29 110 55 212 26 102 47 186 45 187 -1 2 -41 -94 -88 -212z" transform="translate(0.000000,200.000000) scale(0.100000,-0.100000)"/></g></svg>