<?xml version="1.0" standalone="no"?>
<!DOCTYPE svg PUBLIC "-//W3C//DTD SVG 20010904//EN"
 "http://www.w3.org/TR/2001/REC-SVG-20010904/DTD/svg10.dtd">
<svg version="1.0" xmlns="http://www.w3.org/2000/svg"
 width="200.000000pt" height="200.000000pt" viewBox="0 0 200.000000 200.000000"
 preserveAspectRatio="xMidYMid meet">

<g transform="translate(0.000000,200.000000) scale(0.100000,-0.100000)"
fill="#000000" stroke="none">
<path d="M1056 1856 c-108 -29 -248 -98 -337 -166 -205 -155 -390 -427 -487
-715 -45 -135 -119 -595 -125 -770 l-2 -80 898 -3 897 -2 0 98 c0 126 -12 147
-78 138 -59 -8 -118 9 -138 39 -15 23 -15 29 2 75 25 70 15 77 -78 51 -91 -26
-141 -26 -193 -2 -54 24 -103 77 -157 169 -60 104 -83 161 -104 264 -15 73
-16 97 -7 153 27 158 125 218 268 164 30 -11 63 -18 74 -14 21 6 37 40 47 98
3 20 12 37 18 37 16 0 77 -58 138 -130 60 -70 75 -64 101 41 25 104 19 227
-16 303 -50 108 -155 194 -304 248 -45 15 -89 21 -193 24 -119 4 -145 1 -224
-20z m148 -455 c3 -5 -9 -12 -27 -15 -83 -16 -226 -114 -243 -168 -3 -11 -8
-17 -11 -15 -2 3 7 27 20 54 40 76 103 127 178 142 61 12 77 12 83 2z m-124
-170 c-59 -116 -85 -281 -61 -396 5 -22 11 -53 15 -70 3 -17 -9 1 -28 40 -86
177 -73 328 39 434 29 28 56 51 59 51 3 0 -8 -27 -24 -59z"/>
</g>
</svg>
